# xmcd
#
# Track frame offsets:
#	150
#	9582
#	17999
#	28190
#	37782
#	52505
#	61740
#	75422
#	91971
#	102106
#	111514
#	121491
#	131149
#	145994
#	155331
#
# Disc length: 2217
#
# Revision: 1
# Processed by: cddbd v1.5.1PL0 Copyright (c) Steve Scherf et al.
# Submitted via: dBpowerAMP V4.0
# Normalized: r0:TDELIM( - )
#
DISCID=b708a70f
DTITLE=Various Artist - Time-Life Classic Country Christmas Disc 2
DYEAR=1900
DGENRE=
TTITLE0=Brenda Lee - Rockin' Around the Christmas Tree
TTITLE1=Charly Pride - Let It Snow
TTITLE2=Alan Jackson - A Holly Jolly Christmas
TTITLE3=Loretta Lynn - Country Christmas
TTITLE4=Freddy Fender - Please Come Home For Christmas
TTITLE5=Chet Atkins - Jingle Bells
TTITLE6=Ronnie Milsap - Silver Bells
TTITLE7=Alabama - Tennessee Christmas
TTITLE8=Eddy Arnold - C-H-R-I-S-T-M-A-S
TTITLE9=The Forrester Sisters - Carol of the Bells
TTITLE10=The Davis Sisters - Christmas Boogie
TTITLE11=Hank Snow - The Reindeer Boogie
TTITLE12=Marty Robbins - Christmas Prayer
TTITLE13=Roger Miller - Old Toy Trains
TTITLE14=Geroge Jones - O Come All Ye Faithful
EXTD=
EXTT0=
EXTT1=
EXTT2=
EXTT3=
EXTT4=
EXTT5=
EXTT6=
EXTT7=
EXTT8=
EXTT9=
EXTT10=
EXTT11=
EXTT12=
EXTT13=
EXTT14=
PLAYORDER=
